<?xml version="1.0" encoding="utf-8"?>
<!-- Generator: Adobe Illustrator 17.1.0, SVG Export Plug-In . SVG Version: 6.00 Build 0)  -->
<!DOCTYPE svg PUBLIC "-//W3C//DTD SVG 1.1//EN" "http://www.w3.org/Graphics/SVG/1.1/DTD/svg11.dtd">
<svg version="1.1" id="Layer_1" xmlns="http://www.w3.org/2000/svg" xmlns:xlink="http://www.w3.org/1999/xlink" x="0px" y="0px"
	 viewBox="0 0 46 46" enable-background="new 0 0 46 46" xml:space="preserve">
<g>
	<path fill="#282828" d="M38.3,22.4H26.5c-2.4,0-4.4,2-4.4,4.4s2,4.4,4.4,4.4h8.8c0,3.2-2.7,5.9-5.9,5.9H14.7
		c-3.2,0-5.9-2.7-5.9-5.9V19.6c0-1.4,0.7-2.8,1.8-3.6l8.3-5.9l0.3-0.2c1.6-1.4,4.1-1.4,5.7,0l9.8,7c0.1,0.1,1.3,1.2,3.5,1.2h1.3
		c2.8,0,4.6-3.1,3.2-5.5c-0.7-1.2-1.6-2.1-2.8-2.9l-9.5-6.7C25.6-1,18.6-1,13.7,2.9L5.6,8.8C2.1,11.3,0,15.3,0,19.6v11.7
		C0,39.4,6.6,46,14.7,46h14.7c8.1,0,14.7-6.6,14.7-14.7v-2.9C44.2,25.1,41.6,22.4,38.3,22.4z"/>
</g>
</svg>
