<?xml version="1.0" encoding="utf-8"?>
<!-- Generator: Adobe Illustrator 17.1.0, SVG Export Plug-In . SVG Version: 6.00 Build 0)  -->
<!DOCTYPE svg PUBLIC "-//W3C//DTD SVG 1.1//EN" "http://www.w3.org/Graphics/SVG/1.1/DTD/svg11.dtd">
<svg version="1.1" id="Layer_1" xmlns="http://www.w3.org/2000/svg" xmlns:xlink="http://www.w3.org/1999/xlink" x="0px" y="0px"
	 viewBox="0 0 42 46" enable-background="new 0 0 42 46" xml:space="preserve">
<g>
	<path fill="#FFFFFF" d="M38.3,0L12.8,0c-1.6,0-2.9,1.3-2.9,2.9l0,37.2H3.7c-1.6,0-2.9,1.3-2.9,2.9c0,1.6,1.3,2.9,2.9,2.9h18.5
		c1.6,0,2.9-1.3,2.9-2.9c0-1.6-1.3-2.9-2.9-2.9h-6.5l0-12.5l23.1-4.4c1.4-0.3,2.4-1.5,2.4-2.9V2.9C41.2,1.3,39.9,0,38.3,0z
		 M35.3,17.9l-19.6,3.7l0-15.7l19.6,0V17.9z"/>
</g>
</svg>
